<svg width="20" height="20" viewBox="0 0 20 20" fill="none" xmlns="http://www.w3.org/2000/svg">
<rect width="20" height="20" rx="2" fill="#E3E6EB"/>
<path d="M14.6154 12.0449C14.5645 12.0452 14.5142 12.0556 14.4674 12.0756C14.4205 12.0957 14.378 12.1249 14.3422 12.1617C14.3065 12.1985 14.2783 12.2421 14.2591 12.29C14.24 12.3379 14.2303 12.3892 14.2306 12.4409V14.8142C14.2306 15.0329 14.0582 15.2102 13.8459 15.2102H6.15327C6.10243 15.2099 6.05214 15.1995 6.00528 15.1794C5.95841 15.1594 5.91589 15.1301 5.88016 15.0934C5.84442 15.0566 5.81617 15.013 5.79701 14.9651C5.77786 14.9172 5.76819 14.8659 5.76855 14.8142V12.4409C5.76891 12.3893 5.75926 12.3381 5.74017 12.2902C5.72107 12.2424 5.6929 12.1988 5.65726 12.1621C5.62162 12.1253 5.57921 12.096 5.53245 12.0759C5.48569 12.0558 5.43549 12.0453 5.38473 12.0449C5.33389 12.0452 5.2836 12.0556 5.23674 12.0756C5.18987 12.0957 5.14735 12.1249 5.11162 12.1617C5.07588 12.1985 5.04763 12.2421 5.02848 12.29C5.00932 12.3379 4.99965 12.3892 5.00001 12.4409V14.8142C5.00001 15.4696 5.5163 16.0013 6.15327 16.0013H13.8459C14.4829 16.0013 15.0001 15.4696 15.0001 14.8142V12.4409C15.0004 12.3892 14.9908 12.3379 14.9716 12.29C14.9525 12.2421 14.9242 12.1985 14.8885 12.1617C14.8527 12.1249 14.8102 12.0957 14.7634 12.0756C14.7165 12.0556 14.6662 12.0452 14.6154 12.0449Z" fill="#606B87"/>
<path d="M12.1862 10.841C12.1149 10.7694 12.0187 10.7292 11.9185 10.7292C11.8183 10.7292 11.7222 10.7694 11.6509 10.841L10.3842 12.1444V4.396C10.3845 4.34428 10.3749 4.293 10.3557 4.24509C10.3366 4.19719 10.3083 4.15359 10.2726 4.11681C10.2368 4.08002 10.1943 4.05077 10.1475 4.03073C10.1006 4.01068 10.0503 4.00024 9.99946 4C9.94862 4.00024 9.89833 4.01068 9.85146 4.03073C9.8046 4.05077 9.76208 4.08002 9.72634 4.11681C9.69061 4.15359 9.66235 4.19719 9.6432 4.24509C9.62405 4.293 9.61438 4.34428 9.61474 4.396V12.1444L8.34805 10.84C8.31199 10.8039 8.26921 10.7755 8.22223 10.7564C8.17524 10.7373 8.12499 10.7279 8.0744 10.7287C8.0238 10.7296 7.97388 10.7407 7.92755 10.7614C7.88122 10.7821 7.8394 10.812 7.80454 10.8493C7.73509 10.9234 7.69635 11.0219 7.69635 11.1243C7.69635 11.2268 7.73509 11.3253 7.80454 11.3994L9.72816 13.3776C9.76364 13.4144 9.80599 13.4437 9.85273 13.4637C9.89947 13.4837 9.94967 13.494 10.0004 13.494C10.0511 13.494 10.1013 13.4837 10.148 13.4637C10.1947 13.4437 10.2371 13.4144 10.2726 13.3776L12.1962 11.3994C12.267 11.3235 12.3057 11.2223 12.3038 11.1177C12.3019 11.013 12.2597 10.9133 12.1862 10.84V10.841Z" fill="#606B87"/>
</svg>
