<svg width="11" height="14" viewBox="0 0 11 14" fill="none" xmlns="http://www.w3.org/2000/svg">
<path d="M7.68798 0.5C6.89602 0.5 6.10449 0.817111 5.51141 1.44969L1.2071 6.03898C-0.402368 7.75553 -0.402368 10.515 1.2071 12.2316C1.25638 12.2844 1.3164 12.3266 1.38225 12.3557C1.38314 12.3561 1.38449 12.3564 1.38538 12.3568C3.00695 13.9098 5.5365 13.8925 7.09356 12.2316L10.1212 9.00264C10.1727 8.95139 10.2131 8.89032 10.2408 8.82295C10.2682 8.75558 10.282 8.68333 10.2811 8.61048C10.2802 8.53764 10.265 8.4657 10.2363 8.39892C10.2072 8.33214 10.1656 8.27192 10.1132 8.22181C10.0608 8.17169 9.99939 8.13275 9.93175 8.10726C9.86411 8.08177 9.79244 8.07023 9.72032 8.0734C9.6482 8.07657 9.57742 8.09431 9.51247 8.1256C9.44752 8.15693 9.38929 8.20112 9.34136 8.25563L6.31369 11.4845C5.10334 12.7755 3.19867 12.7755 1.98787 11.4845C0.777521 10.1935 0.777521 8.07702 1.98787 6.78599L6.2913 2.19671C7.07879 1.35717 8.2981 1.35717 9.08514 2.19671C9.87263 3.03615 9.87263 4.42171 9.08514 5.26117L5.16829 9.43872C4.80321 9.82762 4.27061 9.8273 3.90598 9.43872C3.5418 9.05018 3.5418 8.39588 3.90598 8.0073L7.05683 4.64681C7.10834 4.59556 7.14865 4.53448 7.17598 4.46712C7.2033 4.39975 7.21719 4.32749 7.21629 4.25465C7.21584 4.1818 7.20063 4.10986 7.17151 4.04308C7.14284 3.9763 7.10117 3.91609 7.04876 3.86597C6.99635 3.8159 6.93454 3.77692 6.8669 3.75143C6.7997 3.72594 6.72759 3.7144 6.65547 3.71757C6.5838 3.72073 6.51302 3.73848 6.44807 3.76977C6.38267 3.8011 6.32444 3.84528 6.27696 3.89979L3.12521 7.26028C2.36146 8.07453 2.36146 9.37149 3.12521 10.1857C3.17627 10.24 3.23764 10.2829 3.30573 10.312C4.08023 10.9659 5.23682 10.9437 5.94816 10.1857L9.86545 6.00819C11.0028 4.79517 11.0194 2.89677 9.97564 1.62583C9.95056 1.56048 9.91293 1.50066 9.86545 1.44969C9.27192 0.817111 8.47995 0.5 7.68798 0.5Z" fill="#141414"/>
</svg>
